<?xml version="1.0" encoding="utf-8"?>
<!-- Generator: Adobe Illustrator 22.1.0, SVG Export Plug-In . SVG Version: 6.00 Build 0)  -->
<svg version="1.1" id="Layer_1" xmlns="http://www.w3.org/2000/svg" xmlns:xlink="http://www.w3.org/1999/xlink" x="0px" y="0px"
	 viewBox="0 0 512 512" style="enable-background:new 0 0 512 512;" xml:space="preserve">
<g>
	<path d="M386.6,130v-9.5c0-38.3-35.6-67.4-73-57.6c-22.5-43.5-82.7-41.7-103.7,0.7c-36.3-9.3-72.4,18.4-72.4,57.1v110.9
		c-17.5-6.5-38.1-4.5-54.6,7.8c-25.8,19.2-31.5,55.7-12.8,81.9l105.4,148c5.3,7.4,13.8,11.8,22.9,11.8h195.9
		c13.1,0,24.5-9,27.4-21.8l26.5-115.1c3-13.2,4.6-26.6,4.6-40.1V188.3C452.9,152.6,421.7,125.1,386.6,130z M410.7,304
		c0,10.3-1.2,20.6-3.5,30.7l-24,104.2H205.7L104.5,296.7c-12.7-17.8,13.2-37.6,25.8-19.9l23.8,33.5c7.9,11.1,25.5,5.5,25.5-8.2
		V120.6c0-22.5,32.1-21.8,32.1,0.6V256c0,7.8,6.3,14.1,14.1,14.1h6c7.8,0,14.1-6.3,14.1-14.1V89.9c0-22.6,32.1-21.8,32.1,0.6V256
		c0,7.8,6.3,14.1,14.1,14.1h6c7.8,0,14.1-6.3,14.1-14.1V119.9c0-22.6,32.1-21.8,32.1,0.6V256c0,7.8,6.3,14.1,14.1,14.1h6
		c7.8,0,14.1-6.3,14.1-14.1v-67.1c0-23.1,32.1-22.5,32.1-0.6L410.7,304L410.7,304z"/>
</g>
</svg>
